<svg width="32" height="32" viewBox="0 0 32 32" fill="none" xmlns="http://www.w3.org/2000/svg">
<rect width="32" height="32" rx="7" fill="#FF0000"></rect>
<path d="M23.5 16C23.5 15.2 23.45 14.08 23.33 13.17C23.21 12.21 22.63 11.64 21.75 11.52C20.29 11.33 16 11.33 16 11.33C16 11.33 11.71 11.33 10.25 11.52C9.37 11.64 8.79 12.21 8.67 13.17C8.55 14.08 8.5 15.2 8.5 16C8.5 16.8 8.55 17.92 8.67 18.83C8.79 19.79 9.37 20.36 10.25 20.48C11.71 20.67 16 20.67 16 20.67C16 20.67 20.29 20.67 21.75 20.48C22.63 20.36 23.21 19.79 23.33 18.83C23.45 17.92 23.5 16.8 23.5 16ZM14.59 18.04V13.96L18.14 16L14.59 18.04Z" fill="white"></path>
</svg>
